<svg xmlns="http://www.w3.org/2000/svg" width="24" height="24" fill="none" id="sleep"><path fill="#000" fill-rule="evenodd" d="M11 2a1 1 0 0 1 1 1v.07c3.703.517 6.56 3.87 6.56 7.93v1.074c0 1.272.23 2.533.676 3.714l.695 1.84c.249.657-.208 1.372-.877 1.372H2.946c-.669 0-1.126-.715-.877-1.371l.695-1.84c.447-1.182.676-2.443.676-3.715V11c0-4.06 2.857-7.413 6.56-7.93V3a1 1 0 0 1 1-1ZM8 9a1 1 0 0 1 1-1h4a1 1 0 0 1 .78 1.625L11.08 13H13a1 1 0 1 1 0 2H9a1 1 0 0 1-.78-1.625L10.92 10H9a1 1 0 0 1-1-1Z" clip-rule="evenodd"></path><path fill="#000" d="M10 20a1 1 0 1 0 0 2h2a1 1 0 1 0 0-2h-2zm9-18a1 1 0 1 0 0 2h.131l-.963 1.445A1 1 0 0 0 19 7h2a1 1 0 1 0 0-2h-.131l.963-1.445A1 1 0 0 0 21 2h-2z"></path></svg>