<svg width="48" height="48" viewBox="0 0 48 48" fill="none" xmlns="http://www.w3.org/2000/svg">
<path d="M24.125 47.25C36.8965 47.25 47.25 36.8965 47.25 24.125C47.25 11.3534 36.8965 1 24.125 1C11.3534 1 1 11.3534 1 24.125C1 36.8965 11.3534 47.25 24.125 47.25Z" stroke="black" stroke-linecap="round" stroke-linejoin="round"/>
<path d="M29.3387 19.1938C29.3387 22.3271 26.9256 24.8538 23.9677 24.8538C21.0134 24.8538 18.5968 22.2969 18.5968 19.16C18.5968 16.0268 21.0099 13.5 23.9677 13.5C26.9221 13.5 29.3387 16.057 29.3387 19.1938ZM34.2258 34.5H13.7742C13.6534 34.5 13.5 34.3745 13.5 34.1877C13.5 30.1763 16.6211 26.9369 20.3871 26.9369H27.6129C31.3789 26.9369 34.5 30.1763 34.5 34.1877C34.5 34.3745 34.3466 34.5 34.2258 34.5Z" stroke="black"/>
</svg>
